<?xml version="1.0" standalone="no"?><!DOCTYPE svg PUBLIC "-//W3C//DTD SVG 1.1//EN" "http://www.w3.org/Graphics/SVG/1.1/DTD/svg11.dtd"><svg class="icon" width="200px" height="140.08px" viewBox="0 0 1462 1024" version="1.1" xmlns="http://www.w3.org/2000/svg"><path d="M47.610144 576.170052a264.160275 264.160275 0 0 0 36.824213 40.387847l2.375756 2.375756 13.066656 11.878778a42.359724 42.359724 0 0 0 27.321191 9.503023 41.848937 41.848937 0 0 0 27.32119-10.690901 40.862998 40.862998 0 0 0 5.939389-55.830259 430.40378 430.40378 0 0 0 47.515114 5.93939 203.127112 203.127112 0 0 0 64.145404 29.696946 129.478685 129.478685 0 0 0 30.884824 3.563633c9.503023 102.157495 40.387847 210.254379 160.363509 280.339172a559.098466 559.098466 0 0 1 78.399938 55.830259c48.702992 39.199969 93.84235 74.836304 188.872577 74.836304s140.169586-36.824213 188.872578-74.836304a677.387342 677.387342 0 0 1 78.399938-55.830259c119.975662-70.084793 152.048364-176.993799 160.363509-280.339172a129.478685 129.478685 0 0 0 30.884824-3.563633 143.281826 143.281826 0 0 0 39.199969-14.254534 284.057229 284.057229 0 0 0 24.945435-15.442412 430.391901 430.391901 0 0 0 47.515113-5.93939 41.100573 41.100573 0 0 0 2.375756 51.078748 39.995847 39.995847 0 0 0 30.884824 14.254534 47.586387 47.586387 0 0 0 27.321191-9.503023l13.066656-11.878778 2.375755-2.375756a344.900333 344.900333 0 0 0 36.824214-40.387847 234.011936 234.011936 0 0 0 41.575724-83.151449 238.513993 238.513993 0 0 0-2.375755-125.915052 262.022095 262.022095 0 0 0-81.963572-125.915051 206.25123 206.25123 0 0 0-83.151449-42.763603c-5.939389-1.187878-10.690901-2.375756-16.63029-3.563633-9.503023-14.254534-19.006046-28.509068-29.696946-41.575725a449.920613 449.920613 0 0 0-119.975662-104.53325 348.143239 348.143239 0 0 0-141.357464-46.327236 268.460393 268.460393 0 0 0-30.884824-1.187878 299.856005 299.856005 0 0 0-86.715083 11.878778 375.84455 375.84455 0 0 0-43.95148 14.254535l-15.442412 7.127267c-1.187878 0-1.187878 0-2.375756 1.187877l-24.945434 11.878779a48.144689 48.144689 0 0 0-10.690901 5.939389c-7.127267 4.751511-13.066656 9.503023-20.193923 14.254534-3.563634 0-8.315145-1.187878-11.878779-1.187878h-2.375756a44.557298 44.557298 0 0 0-11.878778 1.187878 119.559905 119.559905 0 0 0-29.696946-20.193923l-24.945435-11.878779c-1.187878 0-1.187878-1.187878-2.375756-1.187877l-15.442412-7.127267a267.569485 267.569485 0 0 0-43.95148-14.254535 325.929923 325.929923 0 0 0-87.902961-11.878778 268.460393 268.460393 0 0 0-30.884824 1.187878 351.207964 351.207964 0 0 0-142.545341 45.139358 429.809841 429.809841 0 0 0-119.975662 104.53325 257.068645 257.068645 0 0 0-28.509069 41.575725c-5.939389 1.187878-11.878778 2.375756-16.63029 3.563633a206.25123 206.25123 0 0 0-83.151449 42.763603 264.290942 264.290942 0 0 0-81.963571 124.727174 231.63618 231.63618 0 0 0-3.563634 127.102929 212.202498 212.202498 0 0 0 40.387847 85.527205z m65.333282-76.024182a184.548702 184.548702 0 0 1-5.93939-27.32119 120.664632 120.664632 0 0 1 11.878779-66.52116 48.144689 48.144689 0 0 1 5.939389-10.6909v3.563633a266.833 266.833 0 0 0 8.315145 71.272671z m1222.326303-104.53325c2.375756 3.563634 3.563634 7.127267 5.939389 10.6909v1.187878a114.036273 114.036273 0 0 1 10.690901 65.333282 168.52423 168.52423 0 0 1-5.939389 26.133312l-19.006046-28.509068a266.833 266.833 0 0 0 8.315145-71.272671z" fill="#2D2413" /><path d="M939.706406 173.479462l235.199814 131.854441 149.672608 226.884669s-198.3756 76.024182-318.351262-119.975663zM519.197649 173.479462l-234.011936 131.854441-150.860486 225.696791s198.3756 76.024182 318.351262-119.975662z" fill="#AB8662" /><path d="M729.452028 102.206792c-136.605952 5.939389-395.563323 172.242288-395.563323 390.811811 0 136.605952 1.187878 286.278561 146.108975 369.43001 104.53325 60.58177 127.102929 125.915052 249.454348 125.915052s143.733219-65.333282 249.454347-125.915052c144.921097-84.339327 146.108975-232.824058 146.108975-369.43001 0-218.569524-258.95737-384.872422-395.563322-390.811811z" fill="#E2B382" /><path d="M516.821893 605.866998c99.781739 0 91.466594-127.102929 200.751356-128.290807 115.224151-1.187878 76.024182 111.660518 223.321035 128.290807-92.654472 81.963571-112.848395 285.090683-112.848395 285.090683h-205.502868c1.187878 0-19.006046-157.987753-105.721128-285.090683z" fill="#FFFFFF" /><path d="M984.845764 605.866998a74.836304 74.836304 0 1 1-74.836304-74.836304 74.527456 74.527456 0 0 1 74.836304 74.836304z" fill="#231F20" /><path d="M921.888239 627.2488m-28.509069 0a28.509068 28.509068 0 1 0 57.018137 0 28.509068 28.509068 0 1 0-57.018137 0Z" fill="#FFFFFF" /><path d="M474.058291 605.866998a74.836304 74.836304 0 1 0 74.836304-74.836304 74.527456 74.527456 0 0 0-74.836304 74.836304z" fill="#231F20" /><path d="M531.076427 627.2488a28.509068 28.509068 0 1 0 28.509069-28.509069 28.901068 28.901068 0 0 0-28.509069 28.509069z" fill="#FFFFFF" /><path d="M582.155175 813.745621c0 81.963571 74.836304 149.672609 147.296853 149.672609s147.296853-67.709037 147.296852-149.672609-66.521159-97.405983-147.296852-97.405983c-81.963571 1.187878-147.296853 16.63029-147.296853 97.405983z" fill="#84684D" /><path d="M769.839874 795.927454a29.007977 29.007977 0 0 1 8.315145-1.187878c3.563634 0 3.563634-1.187878 5.939389-2.375756 2.375756 0 4.751511-2.375756 7.127268-3.563633a37.133061 37.133061 0 0 0 10.6909-13.066657l3.563634-7.127267c0-1.187878 1.187878-1.187878 2.375755-1.187878a1.187878 1.187878 0 0 1 1.187878 1.187878 49.89087 49.89087 0 0 1-5.939389 29.696946 28.59222 28.59222 0 0 1-7.127267 9.503023 60.308558 60.308558 0 0 0-8.315145 7.127267 29.399977 29.399977 0 0 0-7.127267 4.751512 12.852838 12.852838 0 1 1-14.254534-21.381802c0-1.187878 1.187878-1.187878 3.563633-2.375755zM680.749036 819.685011a29.399977 29.399977 0 0 0-7.127267-4.751512 44.379116 44.379116 0 0 1-8.315145-7.127267c-3.563634-2.375756-4.751511-7.127267-7.127267-9.503023a49.89087 49.89087 0 0 1-5.939389-29.696946 1.187878 1.187878 0 0 1 1.187877-1.187878c1.187878 0 1.187878 0 1.187878 1.187878a33.616943 33.616943 0 0 0 3.563634 7.127267 37.133061 37.133061 0 0 0 10.6909 13.066657c2.375756 1.187878 4.751511 3.563634 7.127267 3.563633 2.375756 1.187878 3.563634 1.187878 5.93939 2.375756a38.012091 38.012091 0 0 0 8.315145 1.187878 13.280474 13.280474 0 0 1-4.751512 26.133312 6.165086 6.165086 0 0 1-4.751511-2.375755z" fill="#E9D9CB" /><path d="M666.494502 924.218261l62.957526-41.575725 62.957525 41.575725h-125.915051z" fill="#231F20" /><path d="M1073.936603 680.703303c-15.442412-22.569679-53.454503-23.757557-84.339327-1.187878-30.884824 21.381801-42.763602 57.018137-26.133313 79.587815 15.442412 22.569679 53.454503 23.757557 84.339327 1.187878 29.696946-21.381801 41.575725-57.018137 26.133313-79.587815zM384.967452 680.703303c15.442412-22.569679 53.454503-23.757557 84.339327-1.187878 30.884824 21.381801 42.763602 57.018137 26.133313 79.587815-15.442412 22.569679-53.454503 23.757557-84.339327 1.187878-29.696946-21.381801-41.575725-57.018137-26.133313-79.587815z" fill="#F06724" /><path d="M788.84592 78.449235s5.939389-2.375756 15.442412-7.127267a57.873409 57.873409 0 0 1 8.315145-3.563634c4.751511-2.375756 10.690901-4.751511 15.442412-7.127267a303.075154 303.075154 0 0 1 39.199969-13.066656 317.733566 317.733566 0 0 1 105.721128-9.503023 308.147392 308.147392 0 0 1 127.102929 41.575725 377.970852 377.970852 0 0 1 109.284762 95.030227 437.721107 437.721107 0 0 1 73.648427 137.79383 288.250438 288.250438 0 0 1 14.254534 86.715083 204.01802 204.01802 0 0 1-23.757557 103.345373 119.892511 119.892511 0 0 1-17.818168 24.945434 55.996562 55.996562 0 0 1-11.878778 11.878779l-8.315145 5.939389a178.419252 178.419252 0 0 1-27.321191 17.818168 135.679408 135.679408 0 0 1-30.884824 10.6909 123.468023 123.468023 0 0 1-68.896915-3.563633 119.975662 119.975662 0 0 1-54.642381-38.012091 148.128367 148.128367 0 0 1-32.072701-109.284762 182.172946 182.172946 0 0 1 36.824213-90.278716c33.26058-40.387847 73.648426-80.775694 129.478685-98.593861a161.195024 161.195024 0 0 1 85.527205-3.563634 180.866281 180.866281 0 0 1 68.896915 35.636335 224.010004 224.010004 0 0 1 70.084793 108.096884 193.624089 193.624089 0 0 1 2.375756 106.909006 199.25463 199.25463 0 0 1-35.636336 71.272671 282.263534 282.263534 0 0 1-33.260579 36.824213c-8.315145 7.127267-13.066656 11.878778-13.066657 11.878779-2.375756 2.375756-5.939389 1.187878-8.315145 0a4.454542 4.454542 0 0 1 0-7.127267s3.563634-4.751511 10.690901-13.066656a220.386977 220.386977 0 0 0 26.133313-39.199969 199.040812 199.040812 0 0 0 22.569679-66.52116 153.402545 153.402545 0 0 0-14.254535-84.339327 165.50702 165.50702 0 0 0-65.333281-74.836304 89.613505 89.613505 0 0 0-89.090839-7.127267c-28.509068 14.254534-54.642381 45.139358-74.836304 80.775693a81.690359 81.690359 0 0 0-11.878778 40.387847 34.199003 34.199003 0 0 0 9.503022 23.757557c4.751511 2.375756 4.751511 0 5.93939-1.187878l2.375755-2.375756 2.375756-2.375755 5.939389-5.939389c-1.187878 1.187878 0-1.187878 0-1.187878a4.359512 4.359512 0 0 0 1.187878-3.563634c5.939389-11.878778 2.375756-47.515114-11.878778-78.399938a291.861587 291.861587 0 0 0-55.830259-83.151449 223.416065 223.416065 0 0 0-68.896915-48.702992 119.975662 119.975662 0 0 0-100.969617-3.563633c-5.939389 2.375756-10.690901 4.751511-13.066656 5.939389-1.187878 1.187878-3.563634 1.187878-4.751512 2.375756a29.768219 29.768219 0 0 1-8.315145 4.751511c-9.503023 5.939389-14.254534 9.503023-14.254534 9.503023a95.956772 95.956772 0 0 1-99.781739-163.927143 14.515867 14.515867 0 0 0 10.690901-3.563633z" fill="#4B3C2B" /><path d="M578.591541 247.127889s-4.751511-3.563634-14.254534-9.503023a51.648929 51.648929 0 0 0-8.315145-4.751511c-1.187878-1.187878-3.563634-1.187878-4.751511-2.375756-2.375756-1.187878-7.127267-3.563634-13.066657-5.939389a120.09445 120.09445 0 0 0-100.969617 3.563633 223.416065 223.416065 0 0 0-68.896915 48.702992 269.280029 269.280029 0 0 0-55.830258 83.151449c-14.254534 30.884824-17.818168 66.521159-11.878779 78.399938a11.96193 11.96193 0 0 0 1.187878 3.563634s1.187878 2.375756 0 1.187877l5.939389 5.93939 2.375756 2.375755 2.375756 2.375756c1.187878 1.187878 0 3.563634 5.939389 1.187878a27.927008 27.927008 0 0 0 9.503023-23.757557 81.690359 81.690359 0 0 0-11.878779-40.387847 206.833291 206.833291 0 0 0-74.836304-80.775693 86.833871 86.833871 0 0 0-89.090839 7.127267 165.50702 165.50702 0 0 0-65.333281 74.836304 155.113089 155.113089 0 0 0-14.254534 84.339327 175.805921 175.805921 0 0 0 22.569679 66.521159 440.393833 440.393833 0 0 0 26.133312 39.199969c7.127267 8.315145 10.690901 13.066656 10.690901 13.066657 2.375756 2.375756 1.187878 5.939389 0 8.315145a4.454542 4.454542 0 0 1-7.127267 0 139.753829 139.753829 0 0 1-13.066656-11.878779 282.263534 282.263534 0 0 1-33.26058-36.824213 209.921773 209.921773 0 0 1-35.636335-71.272671 193.529059 193.529059 0 0 1 2.375755-106.909006 223.998125 223.998125 0 0 1 70.084793-108.096884 165.744596 165.744596 0 0 1 68.896915-35.636335 150.112123 150.112123 0 0 1 85.527205 3.563633c55.830259 19.006046 96.218106 58.206014 129.478685 98.593861a182.172946 182.172946 0 0 1 36.824214 90.278717 148.128367 148.128367 0 0 1-32.072702 109.284762 129.704382 129.704382 0 0 1-54.642381 38.012091 124.537113 124.537113 0 0 1-68.896915 3.563633 135.703165 135.703165 0 0 1-30.884824-10.6909 119.132269 119.132269 0 0 1-27.321191-17.818168l-8.315145-5.939389a110.733973 110.733973 0 0 1-11.878778-11.878779 162.20472 162.20472 0 0 1-17.818168-24.945435 190.179243 190.179243 0 0 1-23.757557-103.345372 377.840185 377.840185 0 0 1 14.254535-86.715083 425.105845 425.105845 0 0 1 73.648426-137.79383 375.55946 375.55946 0 0 1 109.284762-95.030228 308.147392 308.147392 0 0 1 127.102929-41.575724 286.57553 286.57553 0 0 1 105.721129 9.503022 302.992002 302.992002 0 0 1 39.199968 13.066657c5.939389 2.375756 10.690901 4.751511 15.442412 7.127267a57.968439 57.968439 0 0 1 8.315145 3.563633c9.503023 4.751511 15.442412 7.127267 15.442412 7.127267a96.218106 96.218106 0 0 1-83.151449 173.430166 40.304695 40.304695 0 0 0-7.127267-7.127267z" fill="#4B3C2B" /></svg>