<?xml version="1.0" standalone="no"?><!DOCTYPE svg PUBLIC "-//W3C//DTD SVG 1.1//EN" "http://www.w3.org/Graphics/SVG/1.1/DTD/svg11.dtd"><svg class="icon" width="200px" height="200.00px" viewBox="0 0 1024 1024" version="1.1" xmlns="http://www.w3.org/2000/svg"><path d="M440 117.3a2 10.6 0 1 0 4 0 2 10.6 0 1 0-4 0Z" fill="#D8281C" /><path d="M449.445413 116.003895a10.6 2 60 1 0 3.464102-2 10.6 2 60 1 0-3.464102 2Z" fill="#D8281C" /><path d="M457.035481 110.233505a10.6 2 30 1 0 2-3.464101 10.6 2 30 1 0-2 3.464101Z" fill="#D8281C" /><path d="M450 99.4a10.6 2 0 1 0 21.2 0 10.6 2 0 1 0-21.2 0Z" fill="#D8281C" /><path d="M449.112382 95.517081a2 10.6 60 1 0 18.359739-10.6 2 10.6 60 1 0-18.359739 10.6Z" fill="#D8281C" /><path d="M446.485938 92.569513a2 10.6 30 1 0 10.6-18.359739 2 10.6 30 1 0-10.6 18.359739Z" fill="#D8281C" /><path d="M440.7 80.8a2 10.6 0 1 0 4 0 2 10.6 0 1 0-4 0Z" fill="#D8281C" /><path d="M431.773753 84.10166a10.6 2 60 1 0 3.464102-2 10.6 2 60 1 0-3.464102 2Z" fill="#D8281C" /><path d="M425.674127 91.371237a10.6 2 30 1 0 2-3.464101 10.6 2 30 1 0-2 3.464101Z" fill="#D8281C" /><path d="M413.5 98.7a10.6 2 0 1 0 21.2 0 10.6 2 0 1 0-21.2 0Z" fill="#D8281C" /><path d="M417.210647 113.188608a2 10.6 60 1 0 18.359739-10.6 2 10.6 60 1 0-18.359739 10.6Z" fill="#D8281C" /><path d="M427.62367 123.930867a2 10.6 30 1 0 10.6-18.359739 2 10.6 30 1 0-10.6 18.359739Z" fill="#D8281C" /><path d="M258.1 145.1m-12.8 0a12.8 12.8 0 1 0 25.6 0 12.8 12.8 0 1 0-25.6 0Z" fill="#D8281C" /><path d="M358.9 149.6c2 0 3.6 1.6 3.6 3.6v39.2c0 2-1.6 3.6-3.6 3.6s-3.6-1.6-3.6-3.6v-39.2c0-2 1.6-3.6 3.6-3.6z" fill="#6CA4CF" /><path d="M339.3 169.2h39.2c2 0 3.6 1.6 3.6 3.6s-1.6 3.6-3.6 3.6h-39.2c-2 0-3.6-1.6-3.6-3.6s1.6-3.6 3.6-3.6z" fill="#6CA4CF" /><path d="M162.4 139.4c4.8-2.5 7.2-7.3 5.4-10.8l-35.1-68c-1.8-3.5-7.1-4.3-11.9-1.9-4.8 2.5-7.2 7.3-5.4 10.8l35.1 68c1.9 3.5 7.2 4.3 11.9 1.9z" fill="#D2B14A" /><path d="M181.9 78.2c-2.5-4.8-7.3-7.2-10.8-5.4l-68 35.1c-3.5 1.8-4.3 7.1-1.9 11.9 2.5 4.8 7.3 7.2 10.8 5.4l68-35.1c3.6-1.8 4.4-7.1 1.9-11.9z" fill="#D2B14A" /><path d="M42.8 189c18 0 32.6 14.5 32.6 32.2s-14.6 32.2-32.6 32.2c-17.9 0-32.5-14.5-32.5-32.2S24.8 189 42.8 189z m0 55.9c13.2 0 24-10.6 24-23.7s-10.7-23.7-24-23.7c-13.2 0-23.9 10.6-23.9 23.7-0.1 13.1 10.7 23.7 23.9 23.7z" fill="#D7304F" /><path d="M1011.7 601.1c0-42.3-28.1-77.3-56-93.2l-1-0.6V343.9c0-28.2-10.7-54.7-30-74.6-19.5-20-45.6-31-73.5-31h-603c-27.9 0-54 11-73.5 31-19.4 19.9-30 46.4-30 74.6v163.4l-0.8 0.6C118 525.8 87.8 561 87.8 601.2v316.3c0 5.5 1.6 9.2 5.8 13.4 4.1 4.1 7.9 5.8 13.4 5.8h99c5.5 0 9.3-1.6 13.4-5.8 3.8-3.8 5.8-9.6 5.8-13.4v-37.8h651.2v37.8c0 5.5 1.6 9.2 5.8 13.4 4.1 4.1 7.9 5.8 13.4 5.8h99.1c5.5 0 9.3-1.6 13.4-5.8 3.8-3.8 5.8-9.6 5.8-13.4V759.3l-2.2-158.2z" fill="#F39919" /><path d="M877.8 514.4v-52.5c0-35.6-26.9-63.4-61.3-63.4H620.4c-34.4 0-61.3 27.9-61.3 63.4v52.5" fill="#EA5453" /><path d="M513 514.4v-52.5c0-35.6-26-63.4-59.3-63.4H264.1c-33.3 0-59.3 27.9-59.3 63.4v52.5" fill="#EA5453" /><path d="M949.7 942.1h-99.1c-9.5 0-17.1-3.2-24-10.2-6.9-6.9-10.1-14.5-10.1-24v-22.8H289.3c-8.3 0-15-6.7-15-15s6.7-15 15-15h542.1c8.3 0 15 6.7 15 15v37.8c0 1 0.1 1.3 0.1 1.3s0.2 0.5 1.3 1.5c1.1 1.1 1.5 1.3 1.5 1.3s0.3 0.1 1.3 0.1h99.1c1 0 1.3-0.1 1.3-0.1s0.5-0.2 1.5-1.3c0.6-0.6 1.3-2.1 1.4-3V749.9l-2.1-158.1v-0.2c0-36.3-24.3-66.4-48.4-80.2l-1-0.6c-4.7-2.7-7.6-7.6-7.6-13V334.4c0-24.3-9.2-47-25.8-64.1-16.6-17.1-38.9-26.5-62.7-26.5H442.1c-8.3 0-15-6.7-15-15s6.7-15 15-15h364.1c32 0 61.9 12.6 84.2 35.6 22.1 22.7 34.3 52.9 34.3 85v155.1c29.3 19.6 56.9 57.1 56.9 102.1l2.1 158.1V908c0 8.4-4 17.8-10.2 24-6.8 6.9-14.4 10.1-23.8 10.1z"  /><path d="M161 942.1H61.9c-9.5 0-17.1-3.2-24-10.2-6.9-6.9-10.2-14.6-10.2-24V591.6c0-43 29.5-80.5 56.9-101.5V334.4c0-32.1 12.2-62.3 34.3-85 22.3-22.9 52.2-35.6 84.2-35.6h37.2c8.3 0 15 6.7 15 15s-6.7 15-15 15h-37.2c-23.8 0-46.1 9.4-62.7 26.5s-25.8 39.9-25.8 64.1v163.4c0 4.9-2.4 9.5-6.5 12.3l-0.8 0.6c-24.7 17.1-49.6 48.8-49.6 81V908c0 0.9 0.1 1.3 0.1 1.3s0.2 0.5 1.3 1.5c1.1 1.1 1.5 1.3 1.5 1.3s0.3 0.1 1.3 0.1H161c1 0 1.3-0.1 1.3-0.1s0.5-0.2 1.5-1.3c0.6-0.6 1.3-2.1 1.4-3v-37.6c0-8.3 6.7-15 15-15h52.9c8.3 0 15 6.7 15 15s-6.7 15-15 15h-37.9V908c0 8.4-4 17.8-10.2 24-6.9 6.9-14.5 10.1-24 10.1z"  /><path d="M404.2 230.3H280.8c-0.8 0-1.5-0.7-1.5-1.5s0.7-1.5 1.5-1.5h123.5c0.8 0 1.5 0.7 1.5 1.5s-0.7 1.5-1.6 1.5z"  /><path d="M961.2 736.2H834.5c-8.3 0-15-6.7-15-15s6.7-15 15-15h111.7v-124c0-29.3-24.3-52.3-55.2-52.3H118.5c-31 0-55.2 23-55.2 52.3v124h477.4c8.3 0 15 6.7 15 15s-6.7 15-15 15H48.3c-8.3 0-15-6.7-15-15v-139c0-46.1 37.4-82.3 85.2-82.3h772.4c47.8 0 85.2 36.1 85.2 82.3v139c0.1 8.2-6.7 15-14.9 15z"  /><path d="M779.5 722.7h-176c-0.8 0-1.5-0.7-1.5-1.5s0.7-1.5 1.5-1.5h176c0.8 0 1.5 0.7 1.5 1.5s-0.7 1.5-1.5 1.5z"  /><path d="M898 568.3h-42.8c-8.3 0-15-6.7-15-15s6.7-15 15-15H898c8.3 0 15 6.7 15 15s-6.7 15-15 15zM796.6 568.3H670.7c-8.3 0-15-6.7-15-15s6.7-15 15-15h125.9c8.3 0 15 6.7 15 15s-6.7 15-15 15z" fill="#FFFFFF" /><path d="M839.9 520c-8.3 0-15-6.7-15-15v-52.5c0-27.2-20.3-48.4-46.3-48.4H582.5c-26 0-46.3 21.3-46.3 48.4V505c0 8.3-6.7 15-15 15s-15-6.7-15-15v-52.5c0-44 33.5-78.4 76.3-78.4h196.1c42.8 0 76.3 34.5 76.3 78.4V505c0 8.2-6.7 15-15 15z" fill="#040000" /><path d="M475.1 506.5c-0.8 0-1.5-0.7-1.5-1.5v-52.5c0-34.7-25.4-61.9-57.8-61.9H226.2c-32.4 0-57.8 27.2-57.8 61.9V505c0 0.8-0.7 1.5-1.5 1.5s-1.5-0.7-1.5-1.5v-52.5c0-36.4 26.7-64.9 60.8-64.9h189.6c34.1 0 60.8 28.5 60.8 64.9V505c0 0.8-0.6 1.5-1.5 1.5z" fill="#040000" /></svg>